<?xml version="1.0" encoding="UTF-8"?>
<!-- Created with Inkscape (http://www.inkscape.org/) -->
<svg width="150mm" height="33.867mm" version="1.1" viewBox="0 0 150 33.867" xml:space="preserve" xmlns="http://www.w3.org/2000/svg"><g transform="translate(56.647 450.32)"><g transform="matrix(2.1548 0 0 2.1548 -56.356 -482.58)" fill="none"><g transform="matrix(.8557 0 0 .8557 -.019505 2.1606)"><path transform="matrix(.46408 0 0 .46408 26.154 223.96)" d="m9.5947-447.64-0.7591 3.8344q-1.9659-1.0511-3.9123-1.5766-1.927-0.545-3.7371-0.545-3.523 0-5.6057 1.5377-2.0827 1.5377-2.0827 4.0875 0 1.4014 0.7591 2.1605 0.77857 0.73964 3.9707 1.5961l2.3552 0.58393q3.9902 1.0316 5.5473 2.6277 1.5571 1.5766 1.5571 4.4378 0 4.3989-3.4646 7.1628-3.4452 2.7639-9.0898 2.7639-2.3162 0-4.6519-0.46714-2.3357-0.44768-4.6909-1.382l0.79803-4.0485q2.1605 1.343 4.321 2.0243 2.18 0.68125 4.3405 0.68125 3.6787 0 5.8976-1.635 2.2189-1.635 2.2189-4.2626 0-1.7518-0.89535-2.6471-0.87589-0.91481-3.7955-1.6544l-2.3552-0.60339q-4.0291-1.0511-5.5084-2.4136-1.4598-1.382-1.4598-3.8539 0-4.3405 3.3284-7.1044 3.3478-2.7834 8.7005-2.7834 2.0827 0 4.1264 0.36982 2.0437 0.36981 4.0875 1.1094zm8.5642-2.18h3.5814l-3.4257 17.654 12.282-9.1676h4.6519l-13.703 10.433 10.005 11.367h-4.3405l-9.3039-10.647-2.0632 10.647h-3.5814zm23.084 0h3.5814l-0.87589 4.5352h-3.5814zm-1.635 8.4864h3.5814l-4.2627 21.8h-3.5814zm27.62 8.6421-2.5498 13.158h-3.6009l2.5498-13.022q0.17518-0.91482 0.2725-1.6155 0.09732-0.70071 0.09732-1.1095 0-1.635-1.0316-2.5498-1.0316-0.91482-2.8807-0.91482-2.8807 0-4.9634 1.927-2.0827 1.9075-2.725 5.1969l-2.3941 12.087h-3.5814l4.2237-21.8h3.5814l-0.72017 3.4257q1.4987-1.888 3.6009-2.9196 2.1021-1.0316 4.4184-1.0316 2.8807 0 4.4573 1.5571 1.5961 1.5571 1.5961 4.3794 0 0.70071-0.09732 1.4987-0.07786 0.79803-0.25303 1.7323zm26.822-8.6421-3.7177 19.094q-1.0705 5.5473-4.1069 8.2723-3.0169 2.725-8.136 2.725-1.888 0-3.5035-0.29196-1.6155-0.2725-3.0169-0.85642l0.66178-3.4841q1.3236 0.85642 2.8028 1.2652t3.1532 0.40875q3.4062 0 5.5862-1.8686 2.1994-1.8491 2.9002-5.3332l0.31143-1.635q-1.4987 1.7128-3.4841 2.6082-1.9853 0.89535-4.2821 0.89535-3.3089 0-5.2164-2.18-1.888-2.1994-1.888-6.0339 0-3.0169 1.1484-5.8976 1.1484-2.9002 3.231-5.1385 1.382-1.4793 3.2116-2.2773 1.8491-0.79803 3.8539-0.79803 2.1994 0 3.8344 1.0316 1.635 1.0121 2.433 2.8807l0.62285-3.3868zm-5.3916 7.9998q0-2.6471-1.2457-4.0875-1.2457-1.4404-3.5425-1.4404-1.4209 0-2.7055 0.56446-1.2846 0.56446-2.1994 1.5766-1.4793 1.6739-2.3162 3.9512-0.8175 2.2578-0.8175 4.6714 0 2.686 1.2457 4.1264 1.2652 1.4404 3.6203 1.4404 3.4062 0 5.6835-3.0753 2.2773-3.0948 2.2773-7.7273zm17.051 14.365q-3.8344 0-6.0728-2.3552-2.2189-2.3746-2.2189-6.4621 0-2.3746 0.7591-4.8271 0.77857-2.4719 2.0048-4.1459 1.927-2.6082 4.3016-3.8539 2.3746-1.2457 5.3721-1.2457 3.7176 0 5.995 2.3162 2.2968 2.3162 2.2968 6.0534 0 2.5887-0.7591 5.158-0.75911 2.5693-1.9854 4.2626-1.9075 2.6082-4.2821 3.8539-2.3746 1.2457-5.411 1.2457zm-4.5741-8.934q0 2.9586 1.2262 4.4378 1.2457 1.4598 3.7566 1.4598 3.6009 0 5.956-3.1337 2.3746-3.1532 2.3746-7.9803 0-2.8223-1.2652-4.2627-1.2652-1.4403-3.7177-1.4403-2.0243 0-3.6009 0.95374-1.5766 0.93428-2.8223 2.8612-0.91482 1.4404-1.4209 3.2894-0.48661 1.8491-0.48661 3.815z" fill="#00acd7" stroke="#00acd7" aria-label="Skingo"/><g transform="matrix(2.5168 0 0 2.5168 -.13516 -14.074)" fill="#f00"><path d="m2.4446 13.852c-0.03217 0.0508-0.01609 0.0847 0.04824 0.0847l4.7898 0.017c0.04825 0 0.12866-0.0509 0.16083-0.1017l0.27341-0.4405c0.03216-0.0508 0.01608-0.1016-0.04825-0.1016h-4.7093c-0.06433 0-0.14475 0.0339-0.17691 0.0847z"/><path d="m0.016083 15.41c-0.032166 0.0508-0.016083 0.0847 0.048249 0.0847l6.5749-0.0169c0.06433 0 0.12866-0.0339 0.14474-0.1017l0.12867-0.4066c0.01608-0.0508-0.01609-0.1016-0.08042-0.1016h-6.3015c-0.064331 0-0.14475 0.0338-0.17691 0.0847z"/><path d="m3.9081 16.952c-0.03217 0.0508-0.01609 0.1016 0.04825 0.1016l2.4738 0.017c0.04824 0 0.11258-0.0508 0.11258-0.1186l0.03216-0.4066c0-0.0678-0.03216-0.1186-0.0965-0.1186h-2.1843c-0.06434 0-0.12867 0.0508-0.16083 0.1016z"/></g></g></g></g></svg>
